<svg version="1.2" xmlns="http://www.w3.org/2000/svg" viewBox="0 0 70 70" width="50" height="50">
	<title>Star-Blue-svg</title>
	<defs>
		<clipPath clipPathUnits="userSpaceOnUse" id="cp1">
			<path d="m0 0h70v70h-70z"/>
		</clipPath>
	</defs>
	<style>
		.s0 { fill: #424bd1 } 
	</style>
	<g id="Clip-Path" clip-path="url(#cp1)">
		<g>
			<path fill-rule="evenodd" class="s0" d="m46.5 15.7c3.9 3.9 16.1 7.4 16.1 7.4 0 0-12.2 3.5-16.1 7.4-3.9 3.8-7.5 15.7-7.5 15.7 0 0-3.6-11.9-7.5-15.7-4-3.9-16.1-7.4-16.1-7.4 0 0 12.1-3.5 16.1-7.4 3.9-3.8 7.5-15.7 7.5-15.7 0 0 3.6 11.9 7.5 15.7zm-31.1 24.2q0 0 0 0 0 0 0 0zm0 0c0.1 0.3 2.4 7.8 4.9 10.3 2.5 2.5 10.5 4.8 10.5 4.8 0 0-8 2.2-10.5 4.8-2.6 2.5-4.9 10.2-4.9 10.2 0 0-2.4-7.7-4.9-10.2-2.6-2.6-10.5-4.8-10.5-4.8 0 0 7.9-2.3 10.5-4.8 2.5-2.5 4.8-10 4.9-10.3zm44.5 0.5q0 0-0.1 0 0 0 0 0zm0 0c0.1 0.3 1.6 5.1 3.3 6.8 1.6 1.6 6.9 3.1 6.9 3.1 0 0-5.3 1.5-6.9 3.2-1.7 1.7-3.3 6.8-3.3 6.8 0 0-1.5-5.1-3.2-6.8-1.7-1.7-6.9-3.2-6.9-3.2 0 0 5.2-1.5 6.9-3.1 1.7-1.6 3.2-6.5 3.2-6.8z"/>
		</g>
	</g>
</svg>